<?xml version="1.0" standalone="no"?>
<!DOCTYPE svg PUBLIC "-//W3C//DTD SVG 20010904//EN"
 "http://www.w3.org/TR/2001/REC-SVG-20010904/DTD/svg10.dtd">
<svg version="1.0" xmlns="http://www.w3.org/2000/svg"
 width="200.000000pt" height="200.000000pt" viewBox="0 0 200.000000 200.000000"
 preserveAspectRatio="xMidYMid meet">
<metadata>
Created by potrace 1.14, written by Peter Selinger 2001-2017
</metadata>
<g transform="translate(0.000000,200.000000) scale(0.100000,-0.100000)"
fill="#000000" stroke="none">
<path d="M691 1623 c-315 -304 -339 -328 -346 -350 -3 -13 -2 -23 3 -23 5 0
74 69 154 153 80 83 183 191 229 238 189 194 174 187 -40 -18z"/>
<path d="M1035 1764 c-33 -7 -63 -10 -66 -8 -4 2 -12 -3 -19 -11 -7 -8 -18
-15 -24 -15 -6 0 -28 -11 -49 -25 -48 -33 -47 -25 2 26 22 22 36 39 31 37 -4
-2 -115 -106 -246 -233 -131 -126 -257 -248 -280 -271 -33 -32 -42 -46 -37
-63 4 -17 8 -19 14 -9 6 9 9 9 9 1 0 -6 -5 -15 -11 -18 -6 -4 -7 -14 -4 -24 4
-9 8 -25 11 -35 2 -11 13 -43 26 -72 18 -46 24 -52 37 -41 14 10 14 10 3 -5
-16 -20 -6 -42 15 -33 12 4 13 2 5 -8 -9 -10 -2 -23 31 -55 24 -24 47 -39 52
-35 4 5 5 3 2 -3 -4 -7 0 -18 9 -25 14 -11 25 -4 81 54 36 37 68 67 71 67 4 0
-25 -32 -63 -70 -64 -65 -68 -71 -47 -76 12 -4 22 -10 22 -14 0 -7 46 -27 80
-35 3 -1 18 -7 33 -13 44 -18 58 -15 100 26 21 20 35 29 32 20 -4 -9 -13 -19
-20 -22 -8 -3 -18 -14 -24 -24 -10 -18 -7 -20 39 -20 36 0 58 6 78 21 19 16
23 17 13 4 -18 -23 -10 -30 23 -17 19 7 41 7 72 -1 64 -16 207 -6 279 19 322
117 448 499 258 784 -68 104 -152 167 -276 209 -71 24 -182 30 -262 13z m-348
-251 c-22 -39 -298 -315 -307 -307 -2 3 7 15 20 28 14 12 88 89 165 169 76 81
140 147 142 147 1 0 -8 -17 -20 -37z m-47 -112 c0 -10 -215 -224 -230 -229 -5
-2 43 51 107 117 64 67 117 121 119 121 2 0 4 -4 4 -9z m-86 -157 c-38 -36
-94 -89 -124 -117 -74 -70 -64 -59 70 83 63 66 116 116 118 110 2 -6 -27 -41
-64 -76z m1 -62 c-129 -122 -151 -137 -46 -29 58 58 107 104 110 101 3 -3 -26
-35 -64 -72z m15 -47 c-30 -30 -56 -53 -58 -50 -3 2 19 29 48 60 30 30 56 53
59 50 2 -3 -19 -30 -49 -60z m60 2 c0 -1 -37 -38 -82 -82 -77 -74 -74 -69 29
42 32 35 53 51 53 40z m9 -59 c-2 -2 -31 -28 -64 -58 l-60 -55 59 62 c33 34
62 60 65 58 2 -3 2 -6 0 -7z m-162 -32 c-15 -14 -27 -22 -27 -18 0 9 44 50 49
46 2 -2 -8 -15 -22 -28z m171 -18 c-8 -7 -37 -33 -64 -58 -43 -39 -42 -37 10
17 33 34 62 61 64 58 2 -2 -2 -10 -10 -17z m22 -43 c-7 -8 -17 -15 -23 -15 -5
0 -2 9 8 20 21 23 35 19 15 -5z m-55 -55 c-16 -16 -32 -30 -36 -30 -11 0 44
57 55 59 6 0 -3 -12 -19 -29z m113 -8 c-1 -4 -28 -30 -58 -57 l-55 -49 55 57
c52 55 66 66 58 49z m-158 -36 c0 -3 -4 -8 -10 -11 -5 -3 -10 -1 -10 4 0 6 5
11 10 11 6 0 10 -2 10 -4z m169 -21 c-31 -32 -45 -32 -17 0 12 14 26 25 31 25
5 0 -1 -11 -14 -25z m51 -8 c0 -2 -19 -21 -42 -42 -41 -38 -41 -38 -13 -5 34
40 55 57 55 47z m-10 -70 l-44 -42 40 46 c21 25 41 44 44 42 2 -2 -16 -23 -40
-46z m-80 39 c0 -2 -8 -10 -17 -17 -16 -13 -17 -12 -4 4 13 16 21 21 21 13z
m185 -66 c-10 -11 -20 -18 -23 -15 -3 3 3 14 13 25 10 11 20 18 23 15 3 -3 -3
-14 -13 -25z"/>
<path d="M647 1642 c-73 -71 -169 -164 -214 -208 -58 -55 -83 -87 -83 -103 0
-19 23 0 119 100 65 68 164 171 220 229 56 58 101 106 101 107 0 11 -27 -13
-143 -125z"/>
<path d="M538 1597 c-91 -88 -162 -165 -168 -182 -11 -30 60 38 270 258 122
128 65 86 -102 -76z"/>
<path d="M575 1687 c-54 -39 -107 -91 -136 -134 -54 -78 -42 -68 136 116 44
46 44 51 0 18z"/>
<path d="M1190 613 c0 -5 -6 -46 -13 -93 -17 -118 -18 -116 23 -112 19 2 36 5
36 5 1 1 5 32 8 69 8 78 15 118 22 130 3 4 -13 8 -35 8 -23 0 -41 -3 -41 -7z"/>
<path d="M1559 598 c-9 -16 -5 -18 31 -18 32 0 40 4 40 19 0 25 -58 24 -71 -1z"/>
<path d="M807 583 c-28 -20 -37 -34 -39 -57 0 -17 -2 -43 -3 -59 -3 -43 15
-59 65 -59 50 1 73 17 37 26 -33 8 -37 31 -22 110 6 36 9 66 6 66 -4 0 -23
-12 -44 -27z"/>
<path d="M155 561 c-26 -5 -30 -11 -37 -51 -4 -25 -9 -57 -12 -71 -4 -23 -1
-27 24 -31 42 -6 48 1 54 60 3 30 8 62 11 72 7 23 -2 28 -40 21z"/>
<path d="M226 558 c-13 -7 -15 -13 -6 -23 7 -8 10 -18 7 -22 -9 -14 -17 -82
-11 -96 2 -7 15 -12 27 -11 12 1 29 3 37 3 12 1 15 16 15 70 0 39 -3 72 -6 76
-12 11 -45 13 -63 3z"/>
<path d="M398 554 c-35 -15 -44 -27 -53 -73 -5 -25 30 -71 55 -71 16 0 19 8
18 50 0 27 7 63 15 80 18 34 16 35 -35 14z"/>
<path d="M635 563 c-55 -14 -60 -56 -12 -99 19 -16 36 -36 39 -44 4 -12 11
-13 34 -5 43 15 42 44 -5 88 -24 23 -38 44 -34 52 3 8 4 14 2 14 -2 -1 -13 -4
-24 -6z"/>
<path d="M687 564 c-11 -11 24 -53 39 -47 20 7 17 31 -5 43 -23 12 -26 12 -34
4z"/>
<path d="M992 558 c-38 -10 -74 -61 -67 -96 5 -28 32 -51 60 -52 18 0 20 6 20
65 0 47 4 68 15 75 22 14 9 18 -28 8z"/>
<path d="M1357 559 c-81 -22 -72 -129 11 -129 20 0 21 2 11 21 -13 25 -5 76
16 99 17 19 7 21 -38 9z"/>
<path d="M1730 556 c-40 -14 -73 -61 -64 -91 10 -32 35 -55 60 -55 22 0 23 3
17 48 -4 35 -1 58 11 80 9 18 15 32 14 31 -2 0 -19 -6 -38 -13z"/>
<path d="M468 553 c-2 -5 -3 -26 -2 -48 1 -23 -5 -53 -16 -71 l-17 -30 28 4
c66 10 101 90 59 132 -20 20 -46 26 -52 13z"/>
<path d="M860 546 c0 -9 9 -14 20 -13 11 1 20 7 20 14 0 7 -9 13 -20 13 -11 0
-20 -6 -20 -14z"/>
<path d="M1049 553 c0 -5 -3 -24 -5 -43 -14 -91 -13 -95 29 -95 l38 0 4 73 3
72 -34 0 c-19 0 -34 -3 -35 -7z"/>
<path d="M1412 479 c-7 -45 -18 -94 -26 -110 -17 -35 -4 -43 41 -24 36 15 48
47 58 153 l6 62 -34 0 -34 0 -11 -81z"/>
<path d="M1546 513 c-4 -27 -9 -61 -12 -76 -6 -27 -5 -28 32 -25 38 3 39 4 46
53 4 27 10 60 13 72 5 21 2 23 -34 23 -39 0 -39 0 -45 -47z"/>
<path d="M1785 513 c-3 -27 -8 -61 -11 -76 -4 -27 -3 -28 36 -25 l41 3 4 73 3
72 -33 0 c-31 0 -33 -2 -40 -47z"/>
<path d="M571 446 c-17 -20 14 -41 56 -37 7 0 1 12 -13 26 -29 29 -28 29 -43
11z"/>
<path d="M1304 389 c-13 -15 -13 -18 1 -33 25 -25 39 -19 51 19 10 33 10 34
-13 33 -13 -2 -31 -10 -39 -19z"/>
</g>
</svg>
